<svg width="512" height="512" viewBox="0 0 512 512" fill="none" xmlns="http://www.w3.org/2000/svg">
<g clip-path="url(#clip0_7_20)">
<path d="M47.8865 289V239.909H57.123V247.707H57.6344C58.5293 245.065 60.106 242.988 62.3645 241.475C64.6443 239.941 67.2224 239.174 70.0989 239.174C70.6954 239.174 71.3986 239.195 72.2082 239.238C73.0392 239.281 73.6891 239.334 74.1578 239.398V248.538C73.7743 248.432 73.0925 248.315 72.1124 248.187C71.1322 248.038 70.1521 247.963 69.172 247.963C66.9135 247.963 64.9 248.442 63.1315 249.401C61.3844 250.339 59.9994 251.649 58.9767 253.332C57.954 254.994 57.4426 256.891 57.4426 259.021V289H47.8865ZM97.1743 290.087C94.0635 290.087 91.251 289.511 88.7368 288.361C86.2226 287.189 84.2304 285.495 82.7602 283.279C81.3114 281.063 80.5869 278.347 80.5869 275.129C80.5869 272.359 81.1196 270.08 82.1849 268.29C83.2503 266.5 84.6885 265.083 86.4996 264.039C88.3106 262.995 90.3348 262.207 92.572 261.674C94.8092 261.141 97.0891 260.737 99.4115 260.46C102.352 260.119 104.738 259.842 106.571 259.629C108.403 259.394 109.735 259.021 110.566 258.51C111.397 257.999 111.812 257.168 111.812 256.017V255.793C111.812 253.002 111.024 250.839 109.447 249.305C107.892 247.771 105.569 247.004 102.48 247.004C99.2624 247.004 96.7268 247.718 94.8732 249.146C93.0408 250.552 91.773 252.118 91.0699 253.844L82.0891 251.798C83.1544 248.815 84.7098 246.408 86.7553 244.575C88.822 242.722 91.1977 241.379 93.8824 240.548C96.567 239.696 99.3902 239.27 102.352 239.27C104.312 239.27 106.389 239.504 108.584 239.973C110.8 240.42 112.867 241.251 114.784 242.466C116.723 243.68 118.311 245.417 119.546 247.675C120.782 249.913 121.4 252.821 121.4 256.401V289H112.068V282.288H111.684C111.066 283.524 110.139 284.739 108.904 285.932C107.668 287.125 106.081 288.116 104.142 288.904C102.203 289.692 99.8803 290.087 97.1743 290.087ZM99.2517 282.416C101.894 282.416 104.152 281.894 106.027 280.85C107.924 279.806 109.362 278.442 110.342 276.759C111.343 275.055 111.844 273.233 111.844 271.294V264.966C111.503 265.307 110.843 265.626 109.862 265.925C108.904 266.202 107.806 266.447 106.571 266.66C105.335 266.852 104.131 267.033 102.959 267.203C101.787 267.352 100.807 267.48 100.019 267.587C98.1651 267.821 96.4712 268.215 94.9371 268.769C93.4243 269.323 92.2098 270.122 91.2936 271.166C90.3987 272.189 89.9513 273.553 89.9513 275.257C89.9513 277.622 90.8249 279.412 92.572 280.626C94.3192 281.82 96.5457 282.416 99.2517 282.416ZM135.028 289V239.909H144.584V289H135.028ZM139.854 232.335C138.192 232.335 136.765 231.781 135.572 230.673C134.4 229.543 133.814 228.201 133.814 226.646C133.814 225.069 134.4 223.727 135.572 222.619C136.765 221.489 138.192 220.925 139.854 220.925C141.516 220.925 142.933 221.489 144.105 222.619C145.298 223.727 145.895 225.069 145.895 226.646C145.895 228.201 145.298 229.543 144.105 230.673C142.933 231.781 141.516 232.335 139.854 232.335ZM167.897 259.852V289H158.34V239.909H167.513V247.899H168.12C169.249 245.3 171.018 243.212 173.426 241.635C175.855 240.058 178.912 239.27 182.598 239.27C185.943 239.27 188.873 239.973 191.387 241.379C193.901 242.764 195.851 244.831 197.236 247.58C198.621 250.328 199.313 253.727 199.313 257.775V289H189.757V258.925C189.757 255.367 188.83 252.587 186.977 250.584C185.123 248.56 182.577 247.548 179.338 247.548C177.122 247.548 175.151 248.027 173.426 248.986C171.721 249.945 170.368 251.351 169.367 253.205C168.387 255.037 167.897 257.253 167.897 259.852ZM213.029 289V239.909H222.202V247.899H222.809C223.832 245.193 225.505 243.084 227.827 241.571C230.15 240.037 232.93 239.27 236.169 239.27C239.45 239.27 242.199 240.037 244.414 241.571C246.652 243.105 248.303 245.214 249.368 247.899H249.88C251.051 245.278 252.916 243.19 255.473 241.635C258.029 240.058 261.076 239.27 264.613 239.27C269.066 239.27 272.699 240.665 275.512 243.457C278.346 246.248 279.762 250.456 279.762 256.081V289H270.206V256.976C270.206 253.652 269.301 251.244 267.49 249.753C265.679 248.261 263.516 247.516 261.002 247.516C257.891 247.516 255.473 248.474 253.747 250.392C252.021 252.288 251.158 254.728 251.158 257.711V289H241.634V256.369C241.634 253.705 240.803 251.564 239.141 249.945C237.479 248.325 235.316 247.516 232.653 247.516C230.842 247.516 229.169 247.995 227.635 248.954C226.123 249.891 224.897 251.202 223.96 252.885C223.044 254.568 222.586 256.518 222.586 258.734V289H213.029ZM293.47 289V239.909H303.027V289H293.47ZM298.296 232.335C296.635 232.335 295.207 231.781 294.014 230.673C292.842 229.543 292.256 228.201 292.256 226.646C292.256 225.069 292.842 223.727 294.014 222.619C295.207 221.489 296.635 220.925 298.296 220.925C299.958 220.925 301.375 221.489 302.547 222.619C303.74 223.727 304.337 225.069 304.337 226.646C304.337 228.201 303.74 229.543 302.547 230.673C301.375 231.781 299.958 232.335 298.296 232.335ZM326.339 259.852V289H316.783V239.909H325.955V247.899H326.562C327.692 245.3 329.46 243.212 331.868 241.635C334.297 240.058 337.354 239.27 341.04 239.27C344.386 239.27 347.315 239.973 349.829 241.379C352.344 242.764 354.293 244.831 355.678 247.58C357.063 250.328 357.756 253.727 357.756 257.775V289H348.199V258.925C348.199 255.367 347.273 252.587 345.419 250.584C343.565 248.56 341.019 247.548 337.78 247.548C335.565 247.548 333.594 248.027 331.868 248.986C330.163 249.945 328.81 251.351 327.809 253.205C326.829 255.037 326.339 257.253 326.339 259.852ZM389.849 289.959C385.886 289.959 382.349 288.947 379.238 286.923C376.148 284.877 373.72 281.969 371.951 278.197C370.204 274.405 369.33 269.856 369.33 264.55C369.33 259.245 370.215 254.707 371.983 250.935C373.773 247.164 376.223 244.277 379.334 242.274C382.445 240.271 385.971 239.27 389.913 239.27C392.96 239.27 395.41 239.781 397.264 240.804C399.139 241.805 400.587 242.977 401.61 244.32C402.654 245.662 403.464 246.844 404.039 247.867H404.614V223.545H414.171V289H404.838V281.362H404.039C403.464 282.406 402.633 283.599 401.546 284.941C400.481 286.283 399.011 287.455 397.136 288.457C395.261 289.458 392.832 289.959 389.849 289.959ZM391.958 281.809C394.707 281.809 397.029 281.085 398.925 279.636C400.843 278.165 402.292 276.131 403.272 273.531C404.273 270.932 404.774 267.906 404.774 264.455C404.774 261.045 404.284 258.062 403.304 255.506C402.324 252.949 400.886 250.957 398.989 249.529C397.093 248.102 394.749 247.388 391.958 247.388C389.082 247.388 386.685 248.134 384.767 249.625C382.849 251.116 381.401 253.151 380.421 255.729C379.462 258.308 378.982 261.216 378.982 264.455C378.982 267.736 379.472 270.687 380.452 273.308C381.433 275.928 382.881 278.006 384.799 279.54C386.738 281.053 389.124 281.809 391.958 281.809ZM465.496 251.894L456.835 253.428C456.472 252.32 455.897 251.266 455.109 250.264C454.342 249.263 453.298 248.442 451.977 247.803C450.656 247.164 449.004 246.844 447.023 246.844C444.317 246.844 442.058 247.452 440.247 248.666C438.436 249.859 437.531 251.404 437.531 253.3C437.531 254.941 438.138 256.262 439.352 257.263C440.567 258.265 442.527 259.085 445.233 259.724L453.031 261.514C457.548 262.558 460.915 264.167 463.131 266.34C465.347 268.513 466.455 271.337 466.455 274.81C466.455 277.75 465.602 280.371 463.898 282.672C462.215 284.952 459.86 286.741 456.835 288.041C453.83 289.341 450.347 289.991 446.384 289.991C440.886 289.991 436.401 288.819 432.928 286.475C429.455 284.11 427.325 280.754 426.536 276.408L435.773 275.001C436.348 277.409 437.531 279.231 439.32 280.467C441.11 281.681 443.443 282.288 446.32 282.288C449.452 282.288 451.955 281.638 453.83 280.339C455.705 279.018 456.643 277.409 456.643 275.513C456.643 273.979 456.068 272.69 454.917 271.646C453.788 270.602 452.051 269.813 449.707 269.281L441.398 267.459C436.817 266.415 433.429 264.753 431.234 262.473C429.061 260.193 427.974 257.306 427.974 253.812C427.974 250.914 428.784 248.379 430.403 246.205C432.023 244.032 434.26 242.338 437.115 241.124C439.97 239.888 443.241 239.27 446.927 239.27C452.232 239.27 456.408 240.42 459.455 242.722C462.502 245.001 464.516 248.059 465.496 251.894Z" fill="#1F2937"/>
</g>
<defs>
<clipPath id="clip0_7_20">
<rect width="512" height="512" fill="white"/>
</clipPath>
</defs>
</svg>
