<svg width="512" height="512" viewBox="0 0 512 512" fill="none" xmlns="http://www.w3.org/2000/svg">
<g clip-path="url(#clip0_7_23)">
<path d="M119.978 311.511C115.592 311.511 111.825 310.915 108.676 309.723C105.528 308.554 102.998 306.98 101.086 305C99.1742 303.021 97.8473 300.828 97.1051 298.422L108.103 295.757C108.598 296.769 109.317 297.77 110.262 298.759C111.207 299.771 112.477 300.603 114.074 301.256C115.693 301.93 117.729 302.268 120.18 302.268C123.644 302.268 126.511 301.424 128.783 299.738C131.055 298.073 132.19 295.329 132.19 291.506V281.689H131.583C130.953 282.948 130.031 284.242 128.817 285.569C127.625 286.895 126.039 288.009 124.06 288.908C122.103 289.808 119.641 290.258 116.672 290.258C112.691 290.258 109.081 289.324 105.843 287.458C102.626 285.569 100.063 282.757 98.1509 279.024C96.2617 275.268 95.3171 270.567 95.3171 264.922C95.3171 259.232 96.2617 254.43 98.1509 250.517C100.063 246.581 102.638 243.601 105.876 241.577C109.115 239.53 112.725 238.507 116.706 238.507C119.742 238.507 122.238 239.024 124.195 240.059C126.174 241.071 127.748 242.297 128.918 243.736C130.087 245.153 130.976 246.491 131.583 247.751H132.258V239.182H144.301V291.843C144.301 296.274 143.244 299.94 141.13 302.841C139.016 305.743 136.126 307.913 132.46 309.352C128.794 310.792 124.633 311.511 119.978 311.511ZM120.079 280.677C122.666 280.677 124.87 280.047 126.691 278.788C128.513 277.528 129.896 275.718 130.841 273.356C131.785 270.995 132.258 268.161 132.258 264.855C132.258 261.594 131.785 258.737 130.841 256.286C129.919 253.834 128.547 251.934 126.725 250.585C124.926 249.213 122.711 248.527 120.079 248.527C117.358 248.527 115.086 249.235 113.265 250.652C111.443 252.069 110.071 254.014 109.149 256.488C108.227 258.94 107.766 261.729 107.766 264.855C107.766 268.026 108.227 270.804 109.149 273.188C110.093 275.549 111.477 277.393 113.298 278.72C115.142 280.025 117.403 280.677 120.079 280.677ZM172.679 292.046C169.395 292.046 166.438 291.461 163.806 290.292C161.197 289.1 159.128 287.345 157.599 285.029C156.092 282.712 155.338 279.856 155.338 276.46C155.338 273.536 155.878 271.118 156.958 269.207C158.037 267.295 159.51 265.766 161.377 264.619C163.244 263.472 165.347 262.606 167.686 262.021C170.047 261.414 172.487 260.975 175.006 260.705C178.043 260.39 180.505 260.109 182.395 259.862C184.284 259.592 185.656 259.187 186.51 258.647C187.387 258.085 187.826 257.219 187.826 256.05V255.847C187.826 253.306 187.073 251.338 185.566 249.944C184.059 248.549 181.889 247.852 179.055 247.852C176.063 247.852 173.691 248.504 171.936 249.809C170.205 251.113 169.035 252.654 168.428 254.43L157.025 252.811C157.925 249.662 159.409 247.031 161.478 244.917C163.547 242.78 166.078 241.183 169.069 240.126C172.06 239.047 175.366 238.507 178.987 238.507C181.484 238.507 183.969 238.799 186.443 239.384C188.917 239.969 191.177 240.936 193.224 242.286C195.27 243.612 196.912 245.423 198.149 247.717C199.409 250.011 200.038 252.879 200.038 256.32V291H188.298V283.882H187.893C187.151 285.321 186.105 286.671 184.756 287.93C183.429 289.167 181.754 290.168 179.729 290.933C177.728 291.675 175.378 292.046 172.679 292.046ZM175.85 283.072C178.301 283.072 180.427 282.589 182.226 281.621C184.025 280.632 185.408 279.327 186.375 277.708C187.365 276.089 187.86 274.323 187.86 272.412V266.305C187.477 266.62 186.825 266.913 185.903 267.183C185.003 267.452 183.991 267.689 182.867 267.891C181.742 268.093 180.629 268.273 179.527 268.431C178.425 268.588 177.469 268.723 176.659 268.836C174.838 269.083 173.207 269.488 171.768 270.05C170.328 270.612 169.193 271.4 168.36 272.412C167.528 273.401 167.112 274.683 167.112 276.257C167.112 278.507 167.933 280.205 169.575 281.352C171.217 282.499 173.308 283.072 175.85 283.072ZM225.481 260.638V291H213.268V239.182H224.941V247.987H225.548C226.74 245.086 228.64 242.78 231.249 241.071C233.881 239.362 237.131 238.507 240.999 238.507C244.575 238.507 247.69 239.272 250.344 240.801C253.02 242.33 255.089 244.546 256.551 247.447C258.036 250.348 258.767 253.868 258.744 258.006V291H246.532V259.896C246.532 256.432 245.632 253.722 243.833 251.765C242.056 249.809 239.593 248.83 236.445 248.83C234.308 248.83 232.408 249.303 230.743 250.247C229.102 251.169 227.808 252.507 226.864 254.262C225.942 256.016 225.481 258.141 225.481 260.638ZM297.984 239.182V248.628H268.195V239.182H297.984ZM275.55 226.767H287.762V275.414C287.762 277.056 288.01 278.315 288.504 279.192C289.022 280.047 289.696 280.632 290.529 280.947C291.361 281.262 292.283 281.419 293.295 281.419C294.06 281.419 294.757 281.363 295.387 281.25C296.039 281.138 296.534 281.037 296.871 280.947L298.929 290.494C298.277 290.719 297.343 290.966 296.129 291.236C294.937 291.506 293.475 291.663 291.743 291.708C288.684 291.798 285.929 291.337 283.478 290.325C281.026 289.291 279.081 287.694 277.642 285.535C276.225 283.376 275.527 280.677 275.55 277.438V226.767ZM309.148 291V239.182H320.989V247.818H321.529C322.473 244.827 324.093 242.522 326.387 240.902C328.703 239.261 331.346 238.44 334.315 238.44C334.989 238.44 335.743 238.473 336.575 238.541C337.43 238.586 338.138 238.665 338.7 238.777V250.011C338.183 249.831 337.362 249.674 336.238 249.539C335.136 249.381 334.067 249.303 333.033 249.303C330.806 249.303 328.804 249.786 327.028 250.753C325.273 251.698 323.89 253.013 322.878 254.7C321.866 256.387 321.36 258.333 321.36 260.537V291H309.148ZM361.747 292.046C358.464 292.046 355.506 291.461 352.875 290.292C350.266 289.1 348.197 287.345 346.667 285.029C345.16 282.712 344.407 279.856 344.407 276.46C344.407 273.536 344.947 271.118 346.026 269.207C347.106 267.295 348.579 265.766 350.446 264.619C352.312 263.472 354.415 262.606 356.754 262.021C359.116 261.414 361.556 260.975 364.075 260.705C367.111 260.39 369.574 260.109 371.463 259.862C373.352 259.592 374.724 259.187 375.579 258.647C376.456 258.085 376.895 257.219 376.895 256.05V255.847C376.895 253.306 376.141 251.338 374.634 249.944C373.127 248.549 370.957 247.852 368.123 247.852C365.132 247.852 362.759 248.504 361.005 249.809C359.273 251.113 358.104 252.654 357.496 254.43L346.094 252.811C346.993 249.662 348.478 247.031 350.547 244.917C352.616 242.78 355.146 241.183 358.137 240.126C361.129 239.047 364.435 238.507 368.056 238.507C370.552 238.507 373.037 238.799 375.511 239.384C377.985 239.969 380.246 240.936 382.292 242.286C384.339 243.612 385.981 245.423 387.218 247.717C388.477 250.011 389.107 252.879 389.107 256.32V291H377.367V283.882H376.962C376.22 285.321 375.174 286.671 373.825 287.93C372.498 289.167 370.822 290.168 368.798 290.933C366.796 291.675 364.446 292.046 361.747 292.046ZM364.918 283.072C367.37 283.072 369.495 282.589 371.294 281.621C373.094 280.632 374.477 279.327 375.444 277.708C376.434 276.089 376.928 274.323 376.928 272.412V266.305C376.546 266.62 375.894 266.913 374.972 267.183C374.072 267.452 373.06 267.689 371.935 267.891C370.811 268.093 369.698 268.273 368.596 268.431C367.494 268.588 366.538 268.723 365.728 268.836C363.906 269.083 362.276 269.488 360.836 270.05C359.397 270.612 358.261 271.4 357.429 272.412C356.597 273.401 356.181 274.683 356.181 276.257C356.181 278.507 357.002 280.205 358.644 281.352C360.285 282.499 362.377 283.072 364.918 283.072ZM414.549 221.909V291H402.337V221.909H414.549Z" fill="#0B0F14"/>
</g>
<defs>
<clipPath id="clip0_7_23">
<rect width="512" height="512" fill="white"/>
</clipPath>
</defs>
</svg>
